<?xml version="1.0" encoding="utf-8"?>
<!-- Generator: Adobe Illustrator 21.0.2, SVG Export Plug-In . SVG Version: 6.00 Build 0)  -->
<!DOCTYPE svg PUBLIC "-//W3C//DTD SVG 1.1//EN" "http://www.w3.org/Graphics/SVG/1.1/DTD/svg11.dtd">
<svg version="1.1" id="Layer_1" xmlns="http://www.w3.org/2000/svg" xmlns:xlink="http://www.w3.org/1999/xlink" x="0px" y="0px"
	 viewBox="0 0 518 120" style="enable-background:new 0 0 518 120;" xml:space="preserve">
<style type="text/css">
	.st0{fill:#FFFFFF;}
</style>
<g>
	<path class="st0" d="M31.6,24.5v11.2c-3.5-2.5-6.6-3.7-9.4-3.7c-3,0-5.5,1.1-7.4,3.2c-1.9,2-2.9,4.7-2.9,8.1c0,3,0.7,5.5,2,7.7
		c0.7,1.1,1.8,2.6,3.4,4.4c1.6,1.8,3.7,4,6.2,6.5c4.7,4.7,7.8,8.8,9.5,12.3c1.7,3.3,2.5,7.4,2.5,12.3c0,6.6-1.9,12-5.6,16.2
		c-3.7,4.1-8.5,6.2-14.3,6.2c-4.9,0-9.1-1.3-12.5-4V93.4c4.1,3,7.8,4.5,11.1,4.5c3.1,0,5.6-1,7.3-3.1c1.8-2.1,2.6-4.9,2.6-8.5
		c0-3.1-0.7-5.9-2-8.3c-0.7-1.2-1.7-2.5-2.9-4c-1.2-1.5-2.8-3.2-4.7-5.1c-2.9-2.9-5.3-5.4-7.2-7.6c-1.9-2.2-3.3-4.1-4.2-5.8
		c-1.8-3.2-2.6-7.3-2.6-12.2c0-6.6,1.7-11.9,5.2-15.8c3.5-3.9,8.2-5.9,14-5.9C24,21.5,27.9,22.5,31.6,24.5z"/>
	<path class="st0" d="M49.4,22.7h9.8l7.5,34.7c0.9,4.3,1.8,8.7,2.5,13c0.8,4.4,1.4,8.9,2.1,13.7c0.1-0.6,0.1-1.1,0.2-1.5
		c0-0.3,0.1-0.6,0.1-0.7l1.6-9.7l1.4-9.3l1.3-6.1l6.7-34.1h9.9l7.8,85h-11l-1.9-28.9c-0.1-1.5-0.1-2.7-0.2-3.8
		C87.1,74,87,73.1,87,72.4L86.5,61l-0.3-10.5c0-0.1,0-0.2,0-0.5c0-0.2,0-0.6-0.1-1l-0.3,1.7c-0.3,2-0.6,3.8-0.8,5.3
		c-0.2,1.5-0.4,2.8-0.6,3.8L83,67.7l-0.6,2.9l-7.2,37.1h-7.7l-6.7-32.1c-0.9-4.2-1.7-8.5-2.5-12.9c-0.7-4.4-1.4-8.9-2-13.7
		l-3.3,58.6H42.4L49.4,22.7z"/>
	<path class="st0" d="M121.8,22.7h8.9l18.2,85h-11.3l-3.2-16.6h-16.9l-3.2,16.6h-11L121.8,22.7z M132.7,82.3l-2.5-13.5
		c-1.7-9.2-3.1-19.1-4.1-29.5c-0.5,5.1-1.2,10.3-2,15.5c-0.8,5.2-1.8,10.8-2.9,16.7l-2.1,10.9H132.7z"/>
	<path class="st0" d="M155.7,22.7h15.1c6.2,0,10.9,1.5,13.9,4.5c3.9,3.9,5.8,9.7,5.8,17.7c0,6.1-1,11-3.1,14.7c-2,3.7-4.9,6-8.7,6.9
		l15.6,41.4h-11.6l-15.6-41.6v41.6h-11.5V22.7z M167.1,60.4c4.4,0,7.6-1,9.4-3.1c1.8-2.1,2.8-5.5,2.8-10.4c0-2.6-0.2-4.9-0.6-6.8
		c-0.4-1.9-1-3.4-1.8-4.6c-0.8-1.2-1.9-2-3.2-2.6c-1.3-0.6-2.9-0.8-4.7-0.8h-1.9V60.4z"/>
	<path class="st0" d="M197.5,22.7h37.3v10H222v75h-11.2v-75h-13.2V22.7z"/>
</g>
<g>
	<path class="st0" d="M363,63h20.8v3.3c0,16.6-1.5,27.7-4.4,33.5c-2.9,5.9-8.2,8.9-16.1,8.9c-8.1,0-13.9-3.3-17.3-9.9
		c-3.4-6.6-5.1-17.7-5.1-33.3c0-17.8,1.9-29.7,5.6-35.6c3.5-5.5,8.9-8.3,16.2-8.3c5.6,0,9.9,1.3,13.1,4c3.2,2.7,5.6,7.2,7.4,13.4
		l-10.7,4.5c-0.5-2.2-1-4.1-1.6-5.6c-0.6-1.5-1.2-2.7-1.9-3.6c-1.4-1.7-3.5-2.6-6.3-2.6c-3.8,0-6.4,2.4-7.8,7
		c-1.4,4.9-2.1,13.8-2.1,26.5c0,12.9,0.7,21.6,2.1,26.2c1.4,4.6,4.1,6.8,8.1,6.8c3.6,0,6.2-1.6,7.7-4.8c1.5-3.5,2.3-9,2.3-16.6v-2.3
		v-1.7h-10V63z"/>
	<path class="st0" d="M437.7,67.3c0,15-1.7,25.7-5,32c-3.3,6.3-8.9,9.5-16.8,9.5c-8.3,0-14.1-3.4-17.5-10.2c-3.3-6.6-5-18.4-5-35.4
		c0-15.1,1.7-25.8,5-32.1c3.3-6.3,9-9.5,17-9.5c7.1,0,12.4,2.4,15.9,7.3c2.3,3.3,3.9,7.9,5,13.9C437.2,48.4,437.7,56.6,437.7,67.3z
		 M425.7,68.5c0-14.7-0.7-24.5-2-29.3c-1.3-4.8-4-7.3-8.1-7.3c-4.1,0-6.8,2.2-8.2,6.7c-1.3,4.5-2,13.5-2,27
		c0,12.4,0.7,21.1,2.1,25.9c1.4,4.6,4.1,6.8,8,6.8c3.9,0,6.5-2.1,7.9-6.4C425,87.7,425.7,79.9,425.7,68.5z"/>
	<path class="st0" d="M449.1,22.7h11.5V98h18.7v9.7h-30.2V22.7z"/>
	<path class="st0" d="M486.4,22.7H517v9.7h-19.2v26.9h17.3V69h-17.3v38.8h-11.5V22.7z"/>
</g>
<path class="st0" d="M313.4,38.6c0-0.1,0.1-0.3,0.1-0.4c1.5-4.9,2.9-9.7,3.5-14.8c0.3-2.5,0.3-5,0.2-7.6c-0.2-4.7-3.2-8.4-9-11
	c-5.8-2.6-10.2-4.3-21.4-4.3c-11.2,0-15.6,1.7-21.4,4.3c-5.8,2.6-8.8,6.3-9,11c-0.1,2.5,0,5.1,0.2,7.6c0.6,5.1,2,9.9,3.5,14.8
	c0,0.1,0.1,0.3,0.1,0.4c-11,8.2-18.2,21.3-18.2,36.1c0,24.8,20.1,44.8,44.8,44.8c24.8,0,44.8-20.1,44.8-44.8
	C331.6,59.9,324.4,46.8,313.4,38.6z M281.4,103.3c-2,2-5,2.5-7.5,1.4c-0.4-0.2-0.2-0.7,0.2-0.7c1.5,0.2,3.5-0.2,5.7-2.3
	c2.1-2.1,2.5-4.2,2.3-5.7c0-0.4,0.5-0.6,0.7-0.2C283.9,98.3,283.4,101.3,281.4,103.3z M285.3,92.9c1.5,0.2,3.5-0.2,5.7-2.3
	c2.1-2.1,2.5-4.2,2.3-5.7c0-0.4,0.5-0.6,0.7-0.2c1.1,2.5,0.6,5.4-1.4,7.5s-5,2.5-7.5,1.4C284.7,93.4,284.9,92.9,285.3,92.9z
	 M293.2,104c-2,2-5,2.5-7.5,1.4c-0.4-0.2-0.2-0.7,0.2-0.7c1.5,0.2,3.5-0.2,5.7-2.3s2.5-4.2,2.3-5.7c0-0.4,0.5-0.6,0.7-0.2
	C295.7,99,295.3,102,293.2,104z M286.8,29.8c-3.6,0-7.1,0.4-10.5,1.2c-0.3,0.1-0.6,0.2-1,0.4c-0.8,0.3-1.2,0.5-1.6,0.4c0,0,0,0,0,0
	c-0.3-0.1-0.6-0.3-1-0.8c-2.4-2.4-3.2-5.4-3.3-8.6c-0.2-2.7,1-4.4,3.4-5.4c1.4-0.5,5.2-2,14-2c8.9,0,12.6,1.5,14,2
	c2.4,0.9,3.6,2.7,3.4,5.4c-0.2,3.2-1,6.3-3.3,8.6c-0.5,0.5-0.8,0.7-1,0.8c0,0-0.1,0-0.1,0c-0.4,0.1-0.8-0.1-1.5-0.4
	c-0.3-0.1-0.6-0.2-0.9-0.4c-0.5-0.1-1.1-0.3-1.6-0.4C292.8,30.1,289.8,29.8,286.8,29.8z M296.5,81.7c1.5,0.2,3.5-0.2,5.7-2.3
	c2.1-2.1,2.5-4.2,2.3-5.7c0-0.4,0.5-0.6,0.7-0.2c1.1,2.5,0.6,5.4-1.4,7.5s-5,2.5-7.5,1.4C295.9,82.3,296,81.7,296.5,81.7z
	 M297.1,93.6c1.5,0.2,3.5-0.2,5.7-2.3s2.5-4.2,2.3-5.7c0-0.4,0.5-0.6,0.7-0.2c1.1,2.5,0.6,5.4-1.4,7.5c-2,2-5,2.5-7.5,1.4
	C296.6,94.1,296.7,93.5,297.1,93.6z M305.1,104.7c-2,2-5,2.5-7.5,1.4c-0.4-0.2-0.2-0.7,0.2-0.7c1.5,0.2,3.5-0.2,5.7-2.3
	c2.1-2.1,2.5-4.2,2.3-5.7c0-0.4,0.5-0.6,0.7-0.2C307.6,99.7,307.1,102.7,305.1,104.7z M307.6,70.6c1.5,0.2,3.5-0.2,5.7-2.3
	c2.1-2.1,2.5-4.2,2.3-5.7c0-0.4,0.5-0.6,0.7-0.2c1.1,2.5,0.6,5.4-1.4,7.5c-2,2-5,2.5-7.5,1.4C307.1,71.1,307.2,70.5,307.6,70.6z
	 M308.3,82.4c1.5,0.2,3.5-0.2,5.7-2.3c2.1-2.1,2.5-4.2,2.3-5.7c0-0.4,0.5-0.6,0.7-0.2c1.1,2.5,0.6,5.4-1.4,7.5s-5,2.5-7.5,1.4
	C307.7,82.9,307.9,82.4,308.3,82.4z M316.2,93.5c-2,2-5,2.5-7.5,1.4c-0.4-0.2-0.2-0.7,0.2-0.7c1.5,0.2,3.5-0.2,5.7-2.3
	c2.1-2.1,2.5-4.2,2.3-5.7c0-0.4,0.5-0.6,0.7-0.2C318.7,88.5,318.3,91.5,316.2,93.5z"/>
</svg>
